<svg width="80" height="80" viewBox="0 0 80 80" fill="none" xmlns="http://www.w3.org/2000/svg">
<rect width="80" height="80" fill="white"/>
<rect x="8" y="8" width="18" height="18" fill="black"/>
<rect x="12" y="12" width="10" height="10" fill="white"/>
<rect x="54" y="8" width="18" height="18" fill="black"/>
<rect x="58" y="12" width="10" height="10" fill="white"/>
<rect x="8" y="54" width="18" height="18" fill="black"/>
<rect x="12" y="58" width="10" height="10" fill="white"/>
<rect x="34" y="10" width="4" height="4" fill="black"/>
<rect x="42" y="10" width="4" height="4" fill="black"/>
<rect x="34" y="18" width="4" height="4" fill="black"/>
<rect x="42" y="18" width="4" height="4" fill="black"/>
<rect x="30" y="30" width="6" height="6" fill="black"/>
<rect x="40" y="30" width="6" height="6" fill="black"/>
<rect x="50" y="30" width="6" height="6" fill="black"/>
<rect x="20" y="40" width="6" height="6" fill="black"/>
<rect x="30" y="40" width="6" height="6" fill="black"/>
<rect x="50" y="40" width="6" height="6" fill="black"/>
<rect x="60" y="40" width="6" height="6" fill="black"/>
<rect x="30" y="50" width="6" height="6" fill="black"/>
<rect x="40" y="50" width="6" height="6" fill="black"/>
<rect x="50" y="50" width="6" height="6" fill="black"/>
<rect x="30" y="60" width="6" height="6" fill="black"/>
<rect x="40" y="60" width="6" height="6" fill="black"/>
<rect x="60" y="60" width="6" height="6" fill="black"/>
</svg>
